<?xml version="1.0" encoding="utf-8"?>
<!-- Generator: Adobe Illustrator 22.1.0, SVG Export Plug-In . SVG Version: 6.00 Build 0)  -->
<svg version="1.1" id="Layer_1" xmlns="http://www.w3.org/2000/svg" xmlns:xlink="http://www.w3.org/1999/xlink" x="0px" y="0px"
	 viewBox="0 0 90.9 113" style="enable-background:new 0 0 90.9 113;" xml:space="preserve">
<style type="text/css">
	.st0{fill:#E82531;}
</style>
<path class="st0" d="M91.1,0c0,0.6,0,1.2,0,1.8c0,10.7,0,21.5,0,32.2c0,0.5-0.2,1-0.6,1.3C83.6,42.2,76.7,49.1,69.9,56
	c-0.2,0.2-0.3,0.3-0.6,0.7c0.2,0.2,0.5,0.3,0.7,0.5C76.8,64,83.8,71,90.7,77.9c0.2,0.2,0.4,0.6,0.4,0.9c0,11.2,0,22.4,0,33.6
	c0,0.2,0,0.4,0,0.6c-0.3,0-0.5,0-0.8,0c-11.1,0-22.1,0-33.2,0c-0.5,0-0.8-0.2-1.2-0.5c-6.9-6.9-13.9-13.9-20.8-20.8
	c-0.3-0.3-0.8-0.5-1.3-0.5c-11,0-22,0-33,0c-0.3,0-0.5,0-0.8,0c0-11.5,0-34.5,0-34.5S22.8,79.6,34.2,91c0.1-0.1,0.1-0.1,0.3-0.1
	V22.1C23.1,33.6,0,56.7,0,56.7l0-34.8c0,0,22.9,0,33.9,0c0.5,0,0.8-0.1,1.1-0.4c7-7,13.9-14,20.9-20.9c0.1-0.1,0.2-0.3,0.4-0.5
	C67.9,0,79.5,0,91.1,0z M69.2,21.9H35c11.4,11.4,22.9,22.9,34.3,34.3V21.9z M69.2,57L35.1,91.2h34.2V57z"/>
</svg>
