<?xml version="1.0" encoding="utf-8"?>
<!-- Generator: Adobe Illustrator 22.1.0, SVG Export Plug-In . SVG Version: 6.00 Build 0)  -->
<svg version="1.1" id="Layer_1" xmlns="http://www.w3.org/2000/svg" xmlns:xlink="http://www.w3.org/1999/xlink" x="0px" y="0px"
	 viewBox="0 0 90.9 26.4" style="enable-background:new 0 0 90.9 26.4;" xml:space="preserve">
<style type="text/css">
	.st0{fill:#E82531;}
	.st1{enable-background:new    ;}
	.st2{fill:#FFFFFF;}
</style>
<path class="st0" d="M21.3,0c0,0.1,0,0.3,0,0.4c0,2.5,0,5,0,7.5c0,0.1,0,0.2-0.1,0.3c-1.6,1.6-3.2,3.2-4.8,4.8c0,0-0.1,0.1-0.1,0.2
	c0.1,0,0.1,0.1,0.2,0.1c1.6,1.6,3.2,3.2,4.8,4.8c0.1,0.1,0.1,0.1,0.1,0.2c0,2.6,0,5.2,0,7.8v0.1c-0.1,0-0.1,0-0.2,0
	c-2.6,0-5.2,0-7.8,0c-0.1,0-0.2,0-0.3-0.1c-1.6-1.6-3.2-3.2-4.8-4.9c-0.1-0.1-0.2-0.1-0.3-0.1c-2.6,0-5.1,0-7.7,0
	c-0.1,0-0.1,0-0.2,0c0-2.7,0-8.1,0-8.1s5.3,5.4,8,8c0,0,0,0,0.1,0V5.2c-2.8,2.6-8.2,8-8.2,8V5.1c0,0,5.3,0,7.9,0
	c0.1,0,0.2,0,0.3-0.1c1.6-1.6,3.3-3.3,4.9-4.9L13.2,0C15.9,0,18.6,0,21.3,0z M16.2,5.1h-8c2.7,2.7,5.3,5.3,8,8V5.1z M16.2,13.3l-8,8
	h8V13.3z"/>
<g>
	<g>
		<g id="bgVnurapY_1_">
			<g>
				<g class="st1">
					<path class="st2" d="M30.3,14.8L29,16.5v4.8h-3.4V4.5H29v7.3l1.1-1.8l3.1-5.5h4.2l-4.8,7.4l4.9,9.4h-4L30.3,14.8z"/>
					<path class="st2" d="M38.7,21.3V4.5h4.4c2,0,3.5,0.6,4.7,1.9c1.2,1.2,1.8,3,1.8,5.1v2.7c0,2.2-0.6,3.9-1.7,5.2
						s-2.8,1.9-4.8,1.9H38.7z M42.1,7.3v11.2h1c1.1,0,1.9-0.3,2.4-0.9s0.7-1.6,0.7-3.1v-2.9c0-1.6-0.2-2.7-0.7-3.3
						c-0.4-0.6-1.2-0.9-2.2-1H42.1z"/>
					<path class="st2" d="M61.9,7.3h-4.2v14h-3.4v-14h-4.1V4.5h11.6L61.9,7.3L61.9,7.3z"/>
					<path class="st2" d="M69.6,16.7l2.8-12.2h3.8l-4.8,16.8h-3.5L63,4.5h3.8L69.6,16.7z"/>
					<path class="st2" d="M89.5,21.3h-3.4l-5-11v11h-3.4V4.5h3.4l5,11v-11h3.4V21.3z"/>
				</g>
			</g>
		</g>
	</g>
</g>
</svg>
